<svg width="408" height="47" viewBox="0 0 408 47" fill="none" xmlns="http://www.w3.org/2000/svg">
<g clip-path="url(#clip0_93_32)">
<path d="M38.8845 1.44906H51.9099V24.7601C51.9099 38.1796 42.6516 47 25.9869 47C9.32207 47 0 38.1796 0 24.7601V1.44906H13.0254V23.752C13.0254 31.4383 17.3671 36.4156 25.9869 36.4156C34.6066 36.4156 38.8845 31.4383 38.8845 23.752V1.44906Z" fill="white"/>
<path d="M101.912 1.44906H114.491V45.5509H103.062L74.2014 16.5697V45.5509H61.623V1.44906H75.4146L101.912 28.4142V1.44906Z" fill="white"/>
<path d="M137.999 45.5509H124.974V1.44906H137.999V45.5509Z" fill="white"/>
<path d="M174.53 36.5416C180.532 36.5416 185.129 34.5255 188.258 29.8003L199.432 35.4705C195.282 41.9598 186.279 47 174.211 47C157.355 47 145.989 38.3686 145.989 23.5C145.989 8.63137 157.355 0 174.722 0C186.279 0 195.218 5.16622 199.24 11.4665L188.003 17.1367C185.066 12.6005 180.532 10.4584 174.53 10.4584C165.336 10.4584 159.206 15.0576 159.206 23.5C159.206 31.9424 165.336 36.5416 174.53 36.5416Z" fill="white"/>
<path d="M232.034 47C214.347 47 202.918 38.4316 202.918 23.5C202.918 8.56837 214.347 0 232.034 0C249.72 0 261.213 8.56837 261.213 23.5C261.213 38.4316 249.72 47 232.034 47ZM232.034 36.5416C241.866 36.5416 247.932 31.8164 247.932 23.5C247.932 15.1836 241.866 10.4584 232.034 10.4584C222.265 10.4584 216.135 15.1836 216.135 23.5C216.135 31.8164 222.201 36.5416 232.034 36.5416Z" fill="white"/>
<path d="M322.194 45.5509H307.061L295.249 31.6273H282.096V45.5509H269.135V1.44906H300.485C311.914 1.44906 320.789 6.42627 320.789 16.5067C320.789 23.878 316.064 28.5402 309.041 30.5563L322.194 45.5509ZM282.032 22.3029H299.527C304.188 22.3029 307.572 21.0429 307.572 16.7587C307.572 12.4745 304.188 11.2145 299.527 11.2145H282.032V22.3029Z" fill="white"/>
<path d="M342.015 35.7225H376.877V45.5509H329.181V1.44906H376.174V11.2775H342.015V18.5228H370.173V27.9102H342.015V35.7225Z" fill="white"/>
<path d="M408 36.7306C408 42.2978 403.426 46.811 397.784 46.811C392.142 46.811 387.568 42.2978 387.568 36.7306C387.568 31.1633 392.142 26.6501 397.784 26.6501C403.426 26.6501 408 31.1633 408 36.7306Z" fill="white"/>
</g>
<defs>
<clipPath id="clip0_93_32">
<rect width="408" height="47" fill="white"/>
</clipPath>
</defs>
</svg>
